<svg xmlns="http://www.w3.org/2000/svg" xmlns:xlink="http://www.w3.org/1999/xlink" width="812" height="295pt" viewBox="0 0 609 295"><g id="graph0" class="graph" transform="scale(1 1) rotate(0) translate(4 291)"><polygon fill="#fff" stroke="transparent" points="-4 4 -4 -291 605 -291 605 4 -4 4"/><g id="node1" class="node"><title>19</title><ellipse cx="61.5" cy="-80.5" fill="#f80" fill-opacity=".502" stroke="#f80" stroke-opacity=".502" rx="9" ry="9"/><text x="61.5" y="-80.2" fill="#f80" fill-opacity=".502" font-family="arial" font-size="1" text-anchor="middle">19</text></g><g id="node2" class="node"><title>ParentBrainRegion</title><g id="a_node2"><a xlink:title="→ BrainRegionAnnotation.BrainRegion------------------------------→ BrainRegionAnnotation.BrainRegion.proj(parent=&quot;acronym&quot;)"><polygon fill="#000" fill-opacity=".125" stroke="transparent" points="137 -35 22 -35 22 0 137 0 137 -35"/><text x="79.5" y="-15" font-family="arial" font-size="10" text-anchor="middle">ParentBrainRegion</text></a></g></g><g id="edge1" class="edge"><title>19-&gt;ParentBrainRegion</title><path fill="none" stroke="#000" stroke-dasharray="5 2" stroke-opacity=".251" stroke-width=".75" d="M63.78,-71.77C66.49,-62.61 71.07,-47.06 74.6,-35.12"/></g><g id="node3" class="node"><title>CCF.Voxel</title><g id="a_node3"><a xlink:title="→ CCFx y z INDEX (y, z)"><polygon fill="transparent" stroke="transparent" points="259.5 -208 179.5 -208 179.5 -189 259.5 -189 259.5 -208"/><text x="195.5" y="-197" font-family="arial" font-size="10" text-anchor="start" text-decoration="underline">CCF.Voxel</text></a></g></g><g id="node4" class="node"><title>ElectrodePosition.Electrode</title><g id="a_node4"><a xlink:title="→ ElectrodePosition→ probe.ProbeType.Electrode------------------------------→ CCF.Voxel"><polygon fill="transparent" stroke="transparent" points="594.5 -145 436.5 -145 436.5 -126 594.5 -126 594.5 -145"/><text x="515.5" y="-133" font-family="arial" font-size="10" text-anchor="middle">ElectrodePosition.Electrode</text></a></g></g><g id="edge2" class="edge"><title>CCF.Voxel-&gt;ElectrodePosition.Electrode</title><path fill="none" stroke="#000" stroke-dasharray="5 2" stroke-opacity=".251" stroke-width=".75" d="M242.72,-188.9C250.8,-186.12 259.98,-183.19 268.5,-181 330.96,-164.95 403.75,-152.58 454.06,-145.01"/></g><g id="node5" class="node"><title>BrainRegionAnnotation.Voxel</title><g id="a_node5"><a xlink:title="→ BrainRegionAnnotation.BrainRegion→ CCF.Voxel"><polygon fill="transparent" stroke="transparent" points="294.5 -90 134.5 -90 134.5 -71 294.5 -71 294.5 -90"/><text x="214.5" y="-78" font-family="arial" font-size="10" text-anchor="middle">BrainRegionAnnotation.Voxel</text></a></g></g><g id="edge3" class="edge"><title>CCF.Voxel-&gt;BrainRegionAnnotation.Voxel</title><path fill="none" stroke="#000" stroke-opacity=".251" stroke-width=".75" d="M219.12,-188.78C218.19,-167.18 215.79,-111.38 214.87,-90"/></g><g id="node6" class="node"><title>probe.ProbeType.Electrode</title><g id="a_node6"><a xlink:title="→ probe.ProbeTypeelectrode ------------------------------shank shank_col shank_row x_coord=null y_coord=null"><polygon fill="transparent" stroke="transparent" points="411.5 -208 277.5 -208 277.5 -189 411.5 -189 411.5 -208"/><text x="285.5" y="-197" font-family="arial" font-size="10" text-anchor="start" text-decoration="underline">probe.ProbeType.Electrode</text></a></g></g><g id="edge4" class="edge"><title>probe.ProbeType.Electrode-&gt;ElectrodePosition.Electrode</title><path fill="none" stroke="#000" stroke-opacity=".251" stroke-width=".75" d="M368.64,-188.89C401.23,-177.26 458.96,-156.67 491.49,-145.07"/></g><g id="node7" class="node"><title>ElectrodePosition</title><g id="a_node7"><a xlink:title="→ ProbeInsertion→ CCF"><ellipse cx="515.5" cy="-198.5" fill="#00007f" fill-opacity=".251" stroke="#00007f" stroke-opacity=".251" rx="85.5" ry="17.5"/><text x="515.5" y="-195.4" fill="#00007f" fill-opacity=".627" font-family="arial" font-size="12" text-anchor="middle">ElectrodePosition</text></a></g></g><g id="edge5" class="edge"><title>ElectrodePosition-&gt;ElectrodePosition.Electrode</title><path fill="none" stroke="#000" stroke-opacity=".251" stroke-width=".75" d="M515.5,-180.83C515.5,-169.26 515.5,-154.32 515.5,-145.08"/></g><g id="node8" class="node"><title>CCF</title><g id="a_node8"><a xlink:title="ccf_id ------------------------------ccf_version ccf_resolution ccf_description=&quot;&quot;"><polygon fill="#000" fill-opacity=".125" stroke="transparent" points="246.5 -287 192.5 -287 192.5 -252 246.5 -252 246.5 -287"/><text x="208.5" y="-268" font-family="arial" font-size="10" text-anchor="start" text-decoration="underline">CCF</text></a></g></g><g id="edge6" class="edge"><title>CCF-&gt;CCF.Voxel</title><path fill="none" stroke="#000" stroke-opacity=".251" stroke-width=".75" d="M219.5,-251.8C219.5,-238.08 219.5,-219.19 219.5,-208.27"/></g><g id="edge7" class="edge"><title>CCF-&gt;ElectrodePosition</title><path fill="none" stroke="#000" stroke-opacity=".251" stroke-width=".75" d="M246.55,-262.19C295.15,-250.87 398.06,-226.88 461.55,-212.08"/></g><g id="node9" class="node"><title>BrainRegionAnnotation</title><g id="a_node9"><a xlink:title="→ CCF"><polygon fill="#000" fill-opacity=".125" stroke="transparent" points="161 -216 28 -216 28 -181 161 -181 161 -216"/><text x="94.5" y="-196" font-family="arial" font-size="10" text-anchor="middle">BrainRegionAnnotation</text></a></g></g><g id="edge8" class="edge"><title>CCF-&gt;BrainRegionAnnotation</title><path fill="none" stroke="#000" stroke-opacity=".251" stroke-width="2" d="M192.38,-253.53C172.42,-242.51 145.28,-227.53 124.64,-216.14"/></g><g id="node10" class="node"><title>BrainRegionAnnotation.BrainRegion</title><g id="a_node10"><a xlink:title="→ BrainRegionAnnotationacronym ------------------------------region_name region_id=null color_code=null"><polygon fill="transparent" stroke="transparent" points="189 -145 0 -145 0 -126 189 -126 189 -145"/><text x="16" y="-134" font-family="arial" font-size="10" text-anchor="start" text-decoration="underline">BrainRegionAnnotation.BrainRegion</text></a></g></g><g id="edge9" class="edge"><title>BrainRegionAnnotation-&gt;BrainRegionAnnotation.BrainRegion</title><path fill="none" stroke="#000" stroke-opacity=".251" stroke-width=".75" d="M94.5,-180.83C94.5,-169.26 94.5,-154.32 94.5,-145.08"/></g><g id="edge10" class="edge"><title>BrainRegionAnnotation.BrainRegion-&gt;19</title><path fill="none" stroke="#000" stroke-dasharray="5 2" stroke-opacity=".251" stroke-width=".75" d="M89.05,-125.75C82.61,-115.4 72,-98.37 66,-88.73"/></g><g id="edge11" class="edge"><title>BrainRegionAnnotation.BrainRegion-&gt;ParentBrainRegion</title><path fill="none" stroke="#000" stroke-opacity=".251" stroke-width="2" d="M93.37,-125.78C90.89,-106.6 84.93,-60.47 81.69,-35.4"/></g><g id="edge12" class="edge"><title>BrainRegionAnnotation.BrainRegion-&gt;BrainRegionAnnotation.Voxel</title><path fill="none" stroke="#000" stroke-opacity=".251" stroke-width=".75" d="M113.78,-125.98C136.04,-116.15 172.46,-100.07 194.87,-90.17"/></g><g id="node11" class="node"><title>ProbeInsertion</title><g id="a_node11"><a xlink:title="→ session.Sessioninsertion_number ------------------------------→ probe.Probe"><polygon fill="#0f0" fill-opacity=".188" stroke="#0f0" stroke-opacity=".188" points="580.5 -287 450.5 -287 450.5 -252 580.5 -252 580.5 -287"/><text x="476" y="-267.4" fill="#006400" font-family="arial" font-size="12" text-anchor="start" text-decoration="underline">ProbeInsertion</text></a></g></g><g id="edge13" class="edge"><title>ProbeInsertion-&gt;ElectrodePosition</title><path fill="none" stroke="#000" stroke-opacity=".251" stroke-width=".75" d="M515.5,-251.8C515.5,-240.95 515.5,-226.87 515.5,-216.05"/></g></g></svg>